<svg width="24" height="24" viewBox="0 0 24 24" fill="none" xmlns="http://www.w3.org/2000/svg">
<mask id="mask0_9848_8313" style="mask-type:alpha" maskUnits="userSpaceOnUse" x="3" y="3" width="18" height="18">
<path fill-rule="evenodd" clip-rule="evenodd" d="M15.1867 14.4713H15.9767L20.2167 18.7313C20.6267 19.1413 20.6267 19.8113 20.2167 20.2213C19.8067 20.6313 19.1367 20.6313 18.7267 20.2213L14.4767 15.9713V15.1813L14.2067 14.9013C12.8067 16.1013 10.8967 16.7213 8.8667 16.3813C6.0867 15.9113 3.8667 13.5913 3.5267 10.7913C3.0067 6.56133 6.5667 3.00133 10.7967 3.52133C13.5967 3.86133 15.9167 6.08133 16.3867 8.86133C16.7267 10.8913 16.1067 12.8013 14.9067 14.2013L15.1867 14.4713ZM5.47705 9.97131C5.47705 12.4613 7.48705 14.4713 9.97705 14.4713C12.4671 14.4713 14.4771 12.4613 14.4771 9.97131C14.4771 7.48131 12.4671 5.47131 9.97705 5.47131C7.48705 5.47131 5.47705 7.48131 5.47705 9.97131Z" fill="#0F172A"/>
</mask>
<g mask="url(#mask0_9848_8313)">
<rect width="24" height="24" fill="#94A3B8"/>
</g>
</svg>
