<svg width="47" height="47" viewBox="0 0 47 47" fill="none" xmlns="http://www.w3.org/2000/svg">
<circle cx="23.5" cy="23.5" r="23.5" fill="#161625"/>
<path d="M21.2344 15.7969H23.0469C23.1671 15.7969 23.2823 15.7491 23.3673 15.6642C23.4523 15.5792 23.5 15.4639 23.5 15.3438V12.625C23.5 12.5048 23.4523 12.3896 23.3673 12.3046C23.2823 12.2196 23.1671 12.1719 23.0469 12.1719H21.2344C21.1142 12.1719 20.9989 12.2196 20.914 12.3046C20.829 12.3896 20.7812 12.5048 20.7812 12.625V15.3438C20.7812 15.4639 20.829 15.5792 20.914 15.6642C20.9989 15.7491 21.1142 15.7969 21.2344 15.7969ZM21.6875 13.0781H22.5938V14.8906H21.6875V13.0781Z" fill="#F1F5F9"/>
<path d="M24.8594 15.7969H26.6719C26.7921 15.7969 26.9073 15.7491 26.9923 15.6642C27.0773 15.5792 27.125 15.4639 27.125 15.3438V12.625C27.125 12.5048 27.0773 12.3896 26.9923 12.3046C26.9073 12.2196 26.7921 12.1719 26.6719 12.1719H24.8594C24.7392 12.1719 24.6239 12.2196 24.539 12.3046C24.454 12.3896 24.4062 12.5048 24.4062 12.625V15.3438C24.4062 15.4639 24.454 15.5792 24.539 15.6642C24.6239 15.7491 24.7392 15.7969 24.8594 15.7969ZM25.3125 13.0781H26.2188V14.8906H25.3125V13.0781Z" fill="#F1F5F9"/>
<path d="M28.4844 15.7969H30.2969C30.4171 15.7969 30.5323 15.7491 30.6173 15.6642C30.7023 15.5792 30.75 15.4639 30.75 15.3438V12.625C30.75 12.5048 30.7023 12.3896 30.6173 12.3046C30.5323 12.2196 30.4171 12.1719 30.2969 12.1719H28.4844C28.3642 12.1719 28.2489 12.2196 28.164 12.3046C28.079 12.3896 28.0312 12.5048 28.0312 12.625V15.3438C28.0312 15.4639 28.079 15.5792 28.164 15.6642C28.2489 15.7491 28.3642 15.7969 28.4844 15.7969ZM28.9375 13.0781H29.8438V14.8906H28.9375V13.0781Z" fill="#F1F5F9"/>
<path d="M21.2344 20.3281H23.0469C23.1671 20.3281 23.2823 20.2804 23.3673 20.1954C23.4523 20.1104 23.5 19.9952 23.5 19.875V17.1562C23.5 17.0361 23.4523 16.9208 23.3673 16.8358C23.2823 16.7509 23.1671 16.7031 23.0469 16.7031H21.2344C21.1142 16.7031 20.9989 16.7509 20.914 16.8358C20.829 16.9208 20.7812 17.0361 20.7812 17.1562V19.875C20.7812 19.9952 20.829 20.1104 20.914 20.1954C20.9989 20.2804 21.1142 20.3281 21.2344 20.3281ZM21.6875 17.6094H22.5938V19.4219H21.6875V17.6094Z" fill="#F1F5F9"/>
<path d="M24.8594 20.3281H26.6719C26.7921 20.3281 26.9073 20.2804 26.9923 20.1954C27.0773 20.1104 27.125 19.9952 27.125 19.875V17.1562C27.125 17.0361 27.0773 16.9208 26.9923 16.8358C26.9073 16.7509 26.7921 16.7031 26.6719 16.7031H24.8594C24.7392 16.7031 24.6239 16.7509 24.539 16.8358C24.454 16.9208 24.4062 17.0361 24.4062 17.1562V19.875C24.4062 19.9952 24.454 20.1104 24.539 20.1954C24.6239 20.2804 24.7392 20.3281 24.8594 20.3281ZM25.3125 17.6094H26.2188V19.4219H25.3125V17.6094Z" fill="#F1F5F9"/>
<path d="M28.4844 20.3281H30.2969C30.4171 20.3281 30.5323 20.2804 30.6173 20.1954C30.7023 20.1104 30.75 19.9952 30.75 19.875V17.1562C30.75 17.0361 30.7023 16.9208 30.6173 16.8358C30.5323 16.7509 30.4171 16.7031 30.2969 16.7031H28.4844C28.3642 16.7031 28.2489 16.7509 28.164 16.8358C28.079 16.9208 28.0312 17.0361 28.0312 17.1562V19.875C28.0312 19.9952 28.079 20.1104 28.164 20.1954C28.2489 20.2804 28.3642 20.3281 28.4844 20.3281ZM28.9375 17.6094H29.8438V19.4219H28.9375V17.6094Z" fill="#F1F5F9"/>
<path d="M17.6094 15.7969H19.4219C19.5421 15.7969 19.6573 15.7491 19.7423 15.6642C19.8273 15.5792 19.875 15.4639 19.875 15.3438V12.625C19.875 12.5048 19.8273 12.3896 19.7423 12.3046C19.6573 12.2196 19.5421 12.1719 19.4219 12.1719H17.6094C17.4892 12.1719 17.3739 12.2196 17.289 12.3046C17.204 12.3896 17.1562 12.5048 17.1562 12.625V15.3438C17.1562 15.4639 17.204 15.5792 17.289 15.6642C17.3739 15.7491 17.4892 15.7969 17.6094 15.7969ZM18.0625 13.0781H18.9688V14.8906H18.0625V13.0781Z" fill="#F1F5F9"/>
<path d="M17.6094 20.3281H19.4219C19.5421 20.3281 19.6573 20.2804 19.7423 20.1954C19.8273 20.1104 19.875 19.9952 19.875 19.875V17.1562C19.875 17.0361 19.8273 16.9208 19.7423 16.8358C19.6573 16.7509 19.5421 16.7031 19.4219 16.7031H17.6094C17.4892 16.7031 17.3739 16.7509 17.289 16.8358C17.204 16.9208 17.1562 17.0361 17.1562 17.1562V19.875C17.1562 19.9952 17.204 20.1104 17.289 20.1954C17.3739 20.2804 17.4892 20.3281 17.6094 20.3281ZM18.0625 17.6094H18.9688V19.4219H18.0625V17.6094Z" fill="#F1F5F9"/>
<path d="M21.2344 24.8594H23.0469C23.1671 24.8594 23.2823 24.8116 23.3673 24.7267C23.4523 24.6417 23.5 24.5264 23.5 24.4062V21.6875C23.5 21.5673 23.4523 21.4521 23.3673 21.3671C23.2823 21.2821 23.1671 21.2344 23.0469 21.2344H21.2344C21.1142 21.2344 20.9989 21.2821 20.914 21.3671C20.829 21.4521 20.7812 21.5673 20.7812 21.6875V24.4062C20.7812 24.5264 20.829 24.6417 20.914 24.7267C20.9989 24.8116 21.1142 24.8594 21.2344 24.8594ZM21.6875 22.1406H22.5938V23.9531H21.6875V22.1406Z" fill="#F1F5F9"/>
<path d="M17.6094 24.8594H19.4219C19.5421 24.8594 19.6573 24.8116 19.7423 24.7267C19.8273 24.6417 19.875 24.5264 19.875 24.4062V21.6875C19.875 21.5673 19.8273 21.4521 19.7423 21.3671C19.6573 21.2821 19.5421 21.2344 19.4219 21.2344H17.6094C17.4892 21.2344 17.3739 21.2821 17.289 21.3671C17.204 21.4521 17.1562 21.5673 17.1562 21.6875V24.4062C17.1562 24.5264 17.204 24.6417 17.289 24.7267C17.3739 24.8116 17.4892 24.8594 17.6094 24.8594ZM18.0625 22.1406H18.9688V23.9531H18.0625V22.1406Z" fill="#F1F5F9"/>
<path d="M24.8594 24.8594H26.6719C26.7921 24.8594 26.9073 24.8116 26.9923 24.7267C27.0773 24.6417 27.125 24.5264 27.125 24.4062V21.6875C27.125 21.5673 27.0773 21.4521 26.9923 21.3671C26.9073 21.2821 26.7921 21.2344 26.6719 21.2344H24.8594C24.7392 21.2344 24.6239 21.2821 24.539 21.3671C24.454 21.4521 24.4062 21.5673 24.4062 21.6875V24.4062C24.4062 24.5264 24.454 24.6417 24.539 24.7267C24.6239 24.8116 24.7392 24.8594 24.8594 24.8594ZM25.3125 22.1406H26.2188V23.9531H25.3125V22.1406Z" fill="#F1F5F9"/>
<path d="M28.4844 24.8594H30.2969C30.4171 24.8594 30.5323 24.8116 30.6173 24.7267C30.7023 24.6417 30.75 24.5264 30.75 24.4062V21.6875C30.75 21.5673 30.7023 21.4521 30.6173 21.3671C30.5323 21.2821 30.4171 21.2344 30.2969 21.2344H28.4844C28.3642 21.2344 28.2489 21.2821 28.164 21.3671C28.079 21.4521 28.0312 21.5673 28.0312 21.6875V24.4062C28.0312 24.5264 28.079 24.6417 28.164 24.7267C28.2489 24.8116 28.3642 24.8594 28.4844 24.8594ZM28.9375 22.1406H29.8438V23.9531H28.9375V22.1406Z" fill="#F1F5F9"/>
<path d="M21.2344 29.3906H23.0469C23.1671 29.3906 23.2823 29.3429 23.3673 29.2579C23.4523 29.1729 23.5 29.0577 23.5 28.9375V26.2188C23.5 26.0986 23.4523 25.9833 23.3673 25.8983C23.2823 25.8134 23.1671 25.7656 23.0469 25.7656H21.2344C21.1142 25.7656 20.9989 25.8134 20.914 25.8983C20.829 25.9833 20.7812 26.0986 20.7812 26.2188V28.9375C20.7812 29.0577 20.829 29.1729 20.914 29.2579C20.9989 29.3429 21.1142 29.3906 21.2344 29.3906ZM21.6875 26.6719H22.5938V28.4844H21.6875V26.6719Z" fill="#F1F5F9"/>
<path d="M17.6094 29.3906H19.4219C19.5421 29.3906 19.6573 29.3429 19.7423 29.2579C19.8273 29.1729 19.875 29.0577 19.875 28.9375V26.2188C19.875 26.0986 19.8273 25.9833 19.7423 25.8983C19.6573 25.8134 19.5421 25.7656 19.4219 25.7656H17.6094C17.4892 25.7656 17.3739 25.8134 17.289 25.8983C17.204 25.9833 17.1562 26.0986 17.1562 26.2188V28.9375C17.1562 29.0577 17.204 29.1729 17.289 29.2579C17.3739 29.3429 17.4892 29.3906 17.6094 29.3906ZM18.0625 26.6719H18.9688V28.4844H18.0625V26.6719Z" fill="#F1F5F9"/>
<path d="M24.8594 29.3906H26.6719C26.7921 29.3906 26.9073 29.3429 26.9923 29.2579C27.0773 29.1729 27.125 29.0577 27.125 28.9375V26.2188C27.125 26.0986 27.0773 25.9833 26.9923 25.8983C26.9073 25.8134 26.7921 25.7656 26.6719 25.7656H24.8594C24.7392 25.7656 24.6239 25.8134 24.539 25.8983C24.454 25.9833 24.4062 26.0986 24.4062 26.2188V28.9375C24.4062 29.0577 24.454 29.1729 24.539 29.2579C24.6239 29.3429 24.7392 29.3906 24.8594 29.3906ZM25.3125 26.6719H26.2188V28.4844H25.3125V26.6719Z" fill="#F1F5F9"/>
<path d="M28.4844 29.3906H30.2969C30.4171 29.3906 30.5323 29.3429 30.6173 29.2579C30.7023 29.1729 30.75 29.0577 30.75 28.9375V26.2188C30.75 26.0986 30.7023 25.9833 30.6173 25.8983C30.5323 25.8134 30.4171 25.7656 30.2969 25.7656H28.4844C28.3642 25.7656 28.2489 25.8134 28.164 25.8983C28.079 25.9833 28.0312 26.0986 28.0312 26.2188V28.9375C28.0312 29.0577 28.079 29.1729 28.164 29.2579C28.2489 29.3429 28.3642 29.3906 28.4844 29.3906ZM28.9375 26.6719H29.8438V28.4844H28.9375V26.6719Z" fill="#F1F5F9"/>
<path d="M36.6406 26.6719H32.5625V10.8125C32.5625 10.6923 32.5147 10.5771 32.4297 10.4921C32.3448 10.4071 32.2295 10.3594 32.1093 10.3594H15.7968C15.6767 10.3594 15.5614 10.4071 15.4764 10.4921C15.3914 10.5771 15.3437 10.6923 15.3437 10.8125V27.0724C14.9627 26.8274 14.5227 26.6895 14.07 26.6734C13.6172 26.6573 13.1685 26.7635 12.771 26.9808C12.3736 27.1982 12.042 27.5186 11.8113 27.9085C11.5806 28.2984 11.4592 28.7432 11.46 29.1962C11.4604 29.4479 11.4994 29.6981 11.5755 29.938C11.0166 30.1383 10.5465 30.5296 10.248 31.0428C9.94949 31.5561 9.84188 32.1582 9.94414 32.7431C10.0464 33.3279 10.352 33.8578 10.8069 34.2393C11.2618 34.6208 11.8369 34.8293 12.4306 34.8281C12.813 34.8258 13.1897 34.7349 13.5312 34.5626V36.1875C13.5312 36.3077 13.5789 36.4229 13.6639 36.5079C13.7489 36.5929 13.8642 36.6406 13.9843 36.6406C14.1045 36.6406 14.2198 36.5929 14.3047 36.5079C14.3897 36.4229 14.4375 36.3077 14.4375 36.1875V34.5626C14.7209 34.7025 15.0285 34.787 15.3437 34.8114V36.1875C15.3437 36.3077 15.3914 36.4229 15.4764 36.5079C15.5614 36.5929 15.6767 36.6406 15.7968 36.6406H35.7343C35.8545 36.6406 35.9698 36.5929 36.0547 36.5079C36.1397 36.4229 36.1875 36.3077 36.1875 36.1875V29.3906H36.6406C36.7608 29.3906 36.876 29.3429 36.961 29.2579C37.046 29.1729 37.0937 29.0577 37.0937 28.9375V27.125C37.0937 27.0048 37.046 26.8896 36.961 26.8046C36.876 26.7196 36.7608 26.6719 36.6406 26.6719ZM13.9843 32.1094C13.8642 32.1094 13.7489 32.1571 13.6639 32.2421C13.5789 32.3271 13.5312 32.4423 13.5312 32.5625V33.4688C13.2374 33.7575 12.8425 33.9201 12.4306 33.9219C12.0163 33.9235 11.6174 33.7656 11.3164 33.4811C11.0154 33.1965 10.8355 32.807 10.8138 32.3934C10.7922 31.9797 10.9306 31.5736 11.2003 31.2592C11.47 30.9448 11.8503 30.7463 12.2625 30.7047C12.338 30.6966 12.4103 30.6696 12.4728 30.6262C12.5352 30.5829 12.5857 30.5245 12.6196 30.4565C12.6535 30.3885 12.6698 30.313 12.667 30.237C12.6641 30.1611 12.6422 30.0871 12.6032 30.0218C12.4508 29.7733 12.3696 29.4877 12.3685 29.1962C12.3685 28.7671 12.539 28.3555 12.8424 28.0521C13.1459 27.7486 13.5574 27.5781 13.9866 27.5781C14.4157 27.5781 14.8273 27.7486 15.1308 28.0521C15.4342 28.3555 15.6047 28.7671 15.6047 29.1962C15.6036 29.4877 15.5224 29.7733 15.37 30.0218C15.331 30.0871 15.3091 30.1611 15.3062 30.237C15.3034 30.313 15.3196 30.3885 15.3536 30.4565C15.3875 30.5245 15.438 30.5829 15.5004 30.6262C15.5628 30.6696 15.6352 30.6966 15.7107 30.7047C16.1231 30.7463 16.5036 30.945 16.7733 31.2596C17.0431 31.5743 17.1813 31.9807 17.1594 32.3945C17.1375 32.8084 16.9571 33.1979 16.6556 33.4823C16.3542 33.7667 15.9548 33.9241 15.5404 33.9219C15.1277 33.9207 14.7318 33.758 14.4375 33.4688V32.5625C14.4375 32.4423 14.3897 32.3271 14.3047 32.2421C14.2198 32.1571 14.1045 32.1094 13.9843 32.1094ZM26.2187 35.7344H21.6875V31.2031H26.2187V35.7344ZM31.6562 35.7344H27.125V30.75C27.125 30.6298 27.0772 30.5146 26.9922 30.4296C26.9073 30.3446 26.792 30.2969 26.6718 30.2969H21.2343C21.1142 30.2969 20.9989 30.3446 20.9139 30.4296C20.8289 30.5146 20.7812 30.6298 20.7812 30.75V35.7344H16.25V34.7244C16.7604 34.5755 17.2106 34.2687 17.536 33.8481C17.8614 33.4275 18.0452 32.9147 18.0611 32.3832C18.077 31.8517 17.9242 31.3288 17.6245 30.8895C17.3249 30.4503 16.8938 30.1172 16.3931 29.938C16.4692 29.6981 16.5082 29.4479 16.5087 29.1962C16.5083 28.8126 16.4198 28.4342 16.25 28.0902V11.2656H31.6562V35.7344ZM35.2812 35.7344H32.5625V29.3906H35.2812V35.7344ZM36.1875 28.4844H32.5625V27.5781H36.1875V28.4844Z" fill="#F1F5F9"/>
</svg>
