<svg width="997" height="164" viewBox="0 0 997 164" fill="none" xmlns="http://www.w3.org/2000/svg">
<path d="M1.24627 163.123C9.08554 151.448 44.2788 125.195 120.336 117.589C215.408 108.082 216.448 84.9935 238.926 62.047C286.963 13.0098 395.545 153.616 437.076 133.601C478.608 113.586 547.266 47.5057 587.19 93.571C613.209 123.594 701.777 127.096 717.789 73.5558C728.657 37.2162 823.869 26.0198 881.913 35.527C939.957 45.0342 983.99 10.508 991.996 4.50341" stroke="#6C757D" stroke-width="3"/>
<circle cx="26.2652" cy="143.108" r="4.00303" fill="#6C757D"/>
<circle cx="61.2917" cy="129.098" r="4.00303" fill="#6C757D"/>
<circle cx="132.346" cy="116.088" r="4.00303" fill="#6C757D"/>
<circle cx="97.319" cy="120.091" r="4.00303" fill="#6C757D"/>
<circle cx="168.373" cy="109.083" r="4.00303" fill="#6C757D"/>
<circle cx="193.392" cy="101.077" r="4.00303" fill="#6C757D"/>
<circle cx="216.409" cy="86.0651" r="4.00303" fill="#6C757D"/>
<circle cx="233.422" cy="67.0508" r="4.00303" fill="#6C757D"/>
<circle cx="253.437" cy="53.0401" r="4.00303" fill="#6C757D"/>
<circle cx="279.457" cy="54.0409" r="4.00303" fill="#6C757D"/>
<circle cx="302.474" cy="63.0477" r="4.00303" fill="#6C757D"/>
<circle cx="324.491" cy="76.0576" r="4.00303" fill="#6C757D"/>
<circle cx="341.504" cy="88.0667" r="4.00303" fill="#6C757D"/>
<circle cx="362.52" cy="102.077" r="4.00303" fill="#6C757D"/>
<circle cx="385.537" cy="118.089" r="4.00303" fill="#6C757D"/>
<circle cx="408.555" cy="130.098" r="4.00303" fill="#6C757D"/>
<circle cx="429.57" cy="135.102" r="4.00303" fill="#6C757D"/>
<circle cx="450.586" cy="126.095" r="4.00303" fill="#6C757D"/>
<circle cx="474.605" cy="112.085" r="4.00303" fill="#6C757D"/>
<circle cx="492.618" cy="100.076" r="4.00303" fill="#6C757D"/>
<circle cx="516.636" cy="88.0667" r="4.00303" fill="#6C757D"/>
<circle cx="542.656" cy="78.0591" r="4.00303" fill="#6C757D"/>
<circle cx="567.675" cy="80.0606" r="4.00303" fill="#6C757D"/>
<circle cx="586.689" cy="92.0697" r="4.00303" fill="#6C757D"/>
<circle cx="609.707" cy="108.082" r="4.00303" fill="#6C757D"/>
<circle cx="724.794" cy="61.0462" r="4.00303" fill="#6C757D"/>
<circle cx="776.833" cy="38.0288" r="4.00303" fill="#6C757D"/>
<circle cx="805.855" cy="33.025" r="4.00303" fill="#6C757D"/>
<circle cx="831.875" cy="31.0235" r="4.00303" fill="#6C757D"/>
<circle cx="853.892" cy="33.025" r="4.00303" fill="#6C757D"/>
<circle cx="876.909" cy="34.0258" r="4.00303" fill="#6C757D"/>
<circle cx="899.927" cy="36.0273" r="4.00303" fill="#6C757D"/>
<circle cx="921.943" cy="35.0265" r="4.00303" fill="#6C757D"/>
<circle cx="942.959" cy="30.0227" r="4.00303" fill="#6C757D"/>
<circle cx="962.974" cy="22.0167" r="4.00303" fill="#6C757D"/>
<circle cx="979.987" cy="13.0098" r="4.00303" fill="#6C757D"/>
<circle cx="992.997" cy="4.00303" r="4.00303" fill="#6C757D"/>
<circle cx="748.812" cy="47.0356" r="4.00303" fill="#6C757D"/>
<circle cx="712.785" cy="86.0651" r="4.00303" fill="#6C757D"/>
<circle cx="692.77" cy="104.079" r="4.00303" fill="#6C757D"/>
<circle cx="667.751" cy="112.085" r="4.00303" fill="#6C757D"/>
<circle cx="638.729" cy="114.086" r="4.00303" fill="#6C757D"/>
</svg>
