<svg width="400" height="200" viewBox="0 0 400 200" fill="none" xmlns="http://www.w3.org/2000/svg">
<path d="M-1.74846e-05 199.724C-2.21217e-05 146.754 21.0714 95.9531 58.5786 58.4976C96.0859 21.0421 146.957 -0.000130497 200 -0.000135127C253.043 -0.000139758 303.914 21.0421 341.421 58.4976C378.929 95.953 400 146.754 400 199.724L348.678 199.724C348.678 160.346 333.014 122.581 305.132 94.7372C277.249 66.8931 239.432 51.2505 200 51.2505C160.568 51.2505 122.751 66.8932 94.8684 94.7372C66.9858 122.581 51.3215 160.346 51.3215 199.724L-1.74846e-05 199.724Z" fill="#5A8DEE"/>
<path d="M61.8562 56.239C22.0001 93.3706 1.00007 143.301 6.09281e-05 199.723L51.2853 199.581C52.2098 159.567 68.7566 121.553 97.2855 93.9005C125.814 66.2485 164.079 50.5203 203.5 51.4286L204.613 0.0529907C151.584 -1.16884 100.233 19.0419 61.8562 56.239Z" fill="#F54394"/>
</svg>
