<svg width="400" height="202" viewBox="0 0 400 202" fill="none" xmlns="http://www.w3.org/2000/svg">
<path d="M-1.74846e-05 200C-2.21217e-05 146.957 21.0714 96.086 58.5786 58.5787C96.0859 21.0714 146.957 2.21217e-05 200 1.74846e-05C253.043 1.28474e-05 303.914 21.0714 341.421 58.5786C378.929 96.0859 400 146.957 400 200L348.678 200C348.678 160.568 333.014 122.751 305.132 94.8684C277.249 66.9858 239.432 51.3215 200 51.3215C160.568 51.3215 122.751 66.9858 94.8684 94.8685C66.9858 122.751 51.3215 160.568 51.3215 200L-1.74846e-05 200Z" fill="#007CC3"/>
<path d="M399.991 201.913C400.498 148.872 379.915 97.8022 342.768 59.9378L306.133 95.8787C333.747 124.027 349.049 161.992 348.672 201.422L399.991 201.913Z" fill="#7AC142"/>
</svg>
