<svg width="20" height="20" viewBox="0 0 20 20" fill="none" xmlns="http://www.w3.org/2000/svg">
<mask id="mask0_9848_8323" style="mask-type:alpha" maskUnits="userSpaceOnUse" x="2" y="5" width="16" height="10">
<path fill-rule="evenodd" clip-rule="evenodd" d="M2.5 14.1667C2.5 13.7083 2.875 13.3333 3.33333 13.3333H16.6667C17.125 13.3333 17.5 13.7083 17.5 14.1667C17.5 14.625 17.125 15 16.6667 15H3.33333C2.875 15 2.5 14.625 2.5 14.1667ZM3.33333 4.99991H6.66667C7.125 4.99991 7.5 5.37491 7.5 5.83325C7.5 6.29158 7.125 6.66658 6.66667 6.66658H3.33333C2.875 6.66658 2.5 6.29158 2.5 5.83325C2.5 5.37491 2.875 4.99991 3.33333 4.99991ZM11.6667 9.16675H3.33333C2.875 9.16675 2.5 9.54175 2.5 10.0001C2.5 10.4584 2.875 10.8334 3.33333 10.8334H11.6667C12.125 10.8334 12.5 10.4584 12.5 10.0001C12.5 9.54175 12.125 9.16675 11.6667 9.16675Z" fill="#0F172A"/>
</mask>
<g mask="url(#mask0_9848_8323)">
<rect width="20" height="20" fill="#94A3B8"/>
</g>
</svg>
