<svg width="1009" height="27" viewBox="0 0 1009 27" fill="none" xmlns="http://www.w3.org/2000/svg">
<path d="M0.5 25C125.833 20.8333 383.8 13.2997 411 14.4997C445 15.9997 534 14.4997 599 14.4997C664 14.4997 738.5 18.5 794 14.4997C819.167 13.4997 874.3 12.0997 893.5 14.4997C917.5 17.4998 997 7.50024 1004.5 5.50024" stroke="#9673B9"/>
<circle cx="4" cy="23" r="4" fill="#9673B9"/>
<circle cx="29" cy="22" r="4" fill="#9673B9"/>
<circle cx="52" cy="22" r="4" fill="#9673B9"/>
<circle cx="75" cy="22" r="4" fill="#9673B9"/>
<circle cx="98" cy="22" r="4" fill="#9673B9"/>
<circle cx="120" cy="21" r="4" fill="#9673B9"/>
<circle cx="142" cy="20" r="4" fill="#9673B9"/>
<circle cx="164" cy="19" r="4" fill="#9673B9"/>
<circle cx="186" cy="19" r="4" fill="#9673B9"/>
<circle cx="210" cy="18" r="4" fill="#9673B9"/>
<circle cx="233" cy="17" r="4" fill="#9673B9"/>
<circle cx="255" cy="17" r="4" fill="#9673B9"/>
<circle cx="277" cy="17" r="4" fill="#9673B9"/>
<circle cx="302" cy="17" r="4" fill="#9673B9"/>
<circle cx="326" cy="15" r="4" fill="#9673B9"/>
<circle cx="349" cy="15" r="4" fill="#9673B9"/>
<circle cx="372" cy="15" r="4" fill="#9673B9"/>
<circle cx="395" cy="15" r="4" fill="#9673B9"/>
<circle cx="418" cy="15" r="4" fill="#9673B9"/>
<circle cx="441" cy="15" r="4" fill="#9673B9"/>
<circle cx="464" cy="15" r="4" fill="#9673B9"/>
<circle cx="487" cy="15" r="4" fill="#9673B9"/>
<circle cx="510" cy="15" r="4" fill="#9673B9"/>
<circle cx="533" cy="15" r="4" fill="#9673B9"/>
<circle cx="556" cy="15" r="4" fill="#9673B9"/>
<circle cx="579" cy="15" r="4" fill="#9673B9"/>
<circle cx="602" cy="15" r="4" fill="#9673B9"/>
<circle cx="626" cy="12" r="4" fill="#9673B9"/>
<circle cx="647" cy="14" r="4" fill="#9673B9"/>
<circle cx="669" cy="16" r="4" fill="#9673B9"/>
<circle cx="692" cy="15" r="4" fill="#9673B9"/>
<circle cx="711" cy="15" r="4" fill="#9673B9"/>
<circle cx="732" cy="16" r="4" fill="#9673B9"/>
<circle cx="753" cy="16" r="4" fill="#9673B9"/>
<circle cx="775" cy="15" r="4" fill="#9673B9"/>
<circle cx="796" cy="14" r="4" fill="#9673B9"/>
<circle cx="820" cy="13" r="4" fill="#9673B9"/>
<circle cx="846" cy="13" r="4" fill="#9673B9"/>
<circle cx="871" cy="12" r="4" fill="#9673B9"/>
<circle cx="898" cy="14" r="4" fill="#9673B9"/>
<circle cx="925" cy="14" r="4" fill="#9673B9"/>
<circle cx="955" cy="11" r="4" fill="#9673B9"/>
<circle cx="981" cy="9" r="4" fill="#9673B9"/>
<circle cx="1005" cy="4" r="4" fill="#9673B9"/>
</svg>
