<svg width="32" height="32" viewBox="0 0 32 32" fill="none" xmlns="http://www.w3.org/2000/svg">
<mask id="mask0_7993_6879" style="mask-type:alpha" maskUnits="userSpaceOnUse" x="3" y="4" width="26" height="24">
<path d="M13.3304 25.7698V19.1031H18.6637V25.7698C18.6637 26.5031 19.2637 27.1032 19.9971 27.1032H23.9971C24.7304 27.1032 25.3304 26.5031 25.3304 25.7698V16.4365H27.5971C28.2104 16.4365 28.5037 15.6765 28.0371 15.2765L16.8904 5.23648C16.3837 4.78315 15.6104 4.78315 15.1037 5.23648L3.95708 15.2765C3.50375 15.6765 3.78375 16.4365 4.39708 16.4365H6.66375V25.7698C6.66375 26.5031 7.26375 27.1032 7.99708 27.1032H11.9971C12.7304 27.1032 13.3304 26.5031 13.3304 25.7698Z" fill="#0F172A"/>
</mask>
<g mask="url(#mask0_7993_6879)">
<rect width="32" height="32" fill="#CBD5E1"/>
</g>
</svg>
