<svg width="38" height="38" viewBox="0 0 38 38" fill="none" xmlns="http://www.w3.org/2000/svg">
<path d="M19.0001 0C8.52341 0 0 8.52328 0 18.9999C0 29.4765 8.52341 37.9997 19.0001 37.9997C29.4767 37.9997 38 29.4765 38 18.9999C38 8.52328 29.4767 0 19.0001 0ZM19.0001 34.885C10.2409 34.885 3.11473 27.7591 3.11473 18.9999C3.11473 10.2407 10.2409 3.11473 19.0001 3.11473C27.7593 3.11473 34.8853 10.2407 34.8853 18.9999C34.8853 27.7591 27.7593 34.885 19.0001 34.885Z" fill="#FF073A"/>
<path d="M27.2184 11.7066L15.9373 22.9878L10.7796 17.83C10.1713 17.2219 9.18534 17.2219 8.57709 17.83C7.96897 18.4383 7.96897 19.4242 8.57709 20.0325L14.8361 26.2915C15.1402 26.5955 15.5388 26.7476 15.9373 26.7476C16.3359 26.7476 16.7345 26.5955 17.0386 26.2915L29.4209 13.9092C30.029 13.3009 30.029 12.3149 29.4209 11.7067C28.8126 11.0984 27.8265 11.0984 27.2184 11.7066Z" fill="#FF073A"/>
</svg>
