<svg width="1011" height="98" viewBox="0 0 1011 98" fill="none" xmlns="http://www.w3.org/2000/svg">
<path d="M0.5 96C125.833 91.8333 383.8 84.2997 411 85.4997C445 86.9997 534 85.4997 599 85.4997C664 85.4997 700 46 759.5 29C819 12 822.5 7.99998 844 2.99998C865.5 -2.00002 892.5 14 916.5 21.5C940.5 29 993 16.5 1006.5 2.99998" stroke="#27A243"/>
<circle cx="4" cy="94" r="4" fill="#27A243"/>
<circle cx="29" cy="93" r="4" fill="#27A243"/>
<circle cx="52" cy="93" r="4" fill="#27A243"/>
<circle cx="75" cy="93" r="4" fill="#27A243"/>
<circle cx="98" cy="93" r="4" fill="#27A243"/>
<circle cx="120" cy="92" r="4" fill="#27A243"/>
<circle cx="142" cy="91" r="4" fill="#27A243"/>
<circle cx="164" cy="90" r="4" fill="#27A243"/>
<circle cx="186" cy="90" r="4" fill="#27A243"/>
<circle cx="210" cy="89" r="4" fill="#27A243"/>
<circle cx="233" cy="88" r="4" fill="#27A243"/>
<circle cx="255" cy="88" r="4" fill="#27A243"/>
<circle cx="277" cy="88" r="4" fill="#27A243"/>
<circle cx="302" cy="88" r="4" fill="#27A243"/>
<circle cx="326" cy="86" r="4" fill="#27A243"/>
<circle cx="349" cy="86" r="4" fill="#27A243"/>
<circle cx="372" cy="86" r="4" fill="#27A243"/>
<circle cx="395" cy="86" r="4" fill="#27A243"/>
<circle cx="418" cy="86" r="4" fill="#27A243"/>
<circle cx="441" cy="86" r="4" fill="#27A243"/>
<circle cx="464" cy="86" r="4" fill="#27A243"/>
<circle cx="487" cy="86" r="4" fill="#27A243"/>
<circle cx="510" cy="86" r="4" fill="#27A243"/>
<circle cx="533" cy="86" r="4" fill="#27A243"/>
<circle cx="556" cy="86" r="4" fill="#27A243"/>
<circle cx="579" cy="86" r="4" fill="#27A243"/>
<circle cx="602" cy="86" r="4" fill="#27A243"/>
<circle cx="626" cy="83" r="4" fill="#27A243"/>
<circle cx="646" cy="78" r="4" fill="#27A243"/>
<circle cx="667" cy="70" r="4" fill="#27A243"/>
<circle cx="688" cy="61" r="4" fill="#27A243"/>
<circle cx="708" cy="51" r="4" fill="#27A243"/>
<circle cx="727" cy="41" r="4" fill="#27A243"/>
<circle cx="748" cy="32" r="4" fill="#27A243"/>
<circle cx="771" cy="25" r="4" fill="#27A243"/>
<circle cx="794" cy="18" r="4" fill="#27A243"/>
<circle cx="817" cy="11" r="4" fill="#27A243"/>
<circle cx="840" cy="4" r="4" fill="#27A243"/>
<circle cx="869" cy="4" r="4" fill="#27A243"/>
<circle cx="895" cy="12" r="4" fill="#27A243"/>
<circle cx="919" cy="21" r="4" fill="#27A243"/>
<circle cx="945" cy="22" r="4" fill="#27A243"/>
<circle cx="969" cy="18" r="4" fill="#27A243"/>
<circle cx="989" cy="13" r="4" fill="#27A243"/>
<circle cx="1007" cy="4" r="4" fill="#27A243"/>
</svg>
