<svg width="29" height="29" viewBox="0 0 29 29" fill="none" xmlns="http://www.w3.org/2000/svg">
<g clip-path="url(#clip0_7993_6586)">
<path d="M10.1733 23.3652H13.1019C13.6335 23.3652 13.6577 22.5156 13.1019 22.5156H10.1733C9.64169 22.5156 9.6175 23.3652 10.1733 23.3652Z" fill="#F1F5F9"/>
<path d="M5.70943 23.3652C6.24106 23.3652 6.26525 22.5156 5.70943 22.5156H2.78083C2.2492 22.5156 2.22501 23.3652 2.78083 23.3652H5.70943Z" fill="#F1F5F9"/>
<path d="M28.552 23.8942C28.085 23.3568 27.233 23.2986 26.6966 23.7689L25.3542 24.9458L21.8754 20.9422L22.6832 20.2339C23.0829 19.8834 22.5412 19.2288 22.1231 19.5951L17.5914 23.5681C17.147 23.9579 16.5381 23.2523 16.9831 22.8622L23.7947 16.8904C24.2392 16.5008 24.848 17.2062 24.403 17.5963L23.7221 18.1933C23.3223 18.5437 23.8641 19.1984 24.2822 18.8321L24.9631 18.2351C26.2227 17.1308 24.5265 15.1191 23.2346 16.2515L22.4833 16.9101L20.6323 14.78L20.0533 14.1136C20.0532 14.1135 20.0532 14.1135 20.0531 14.1133L12.4654 5.38124C12.0079 4.85477 11.1732 4.79768 10.6477 5.25845L10.3415 5.52687L9.34704 4.38227C8.88955 3.85574 8.05495 3.79882 7.52938 4.25948L7.44408 4.33424L3.80057 0.141203C3.45178 -0.260039 2.79475 0.278953 3.15929 0.698489L6.80524 4.89436L6.71716 4.97156C6.18321 5.4397 6.12747 6.25628 6.59295 6.79193L7.58993 7.9393L7.28096 8.21015C6.74701 8.67829 6.69127 9.49487 7.15675 10.0306L9.25964 12.4507C9.1459 12.527 9.07103 12.6566 9.07103 12.8038V14.364C9.07103 14.5986 9.26117 14.7888 9.49583 14.7888H9.98112V15.7683L8.02816 18.0692C7.97022 18.2163 7.91227 18.2163 7.85439 18.0692L5.90142 15.7683V14.7888H6.38672C6.62138 14.7888 6.81152 14.5986 6.81152 14.364V12.8038C6.81152 12.5692 6.62138 12.379 6.38672 12.379H2.10345C1.86879 12.379 1.67865 12.5692 1.67865 12.8038V14.364C1.67865 14.5986 1.86879 14.7888 2.10345 14.7888H2.58875V15.7683L0.63578 18.0692C0.306869 18.4567 0.125732 18.9498 0.125732 19.4576V21.8246C0.125732 22.3562 0.97534 22.3804 0.97534 21.8246V20.8713H7.51483V24.816H0.97534V24.0942C0.97534 23.5626 0.125732 23.5384 0.125732 24.0942V27.5039C0.125732 28.3261 0.79579 28.9951 1.61946 28.9951H6.87077C7.2903 28.9951 7.66974 28.8212 7.94127 28.5423C8.21287 28.8212 8.5923 28.9951 9.01178 28.9951H14.2631C15.0868 28.9951 15.7568 28.3261 15.7568 27.5039V19.9279L17.177 21.5623L16.423 22.2233C15.149 23.3404 16.8748 25.3261 18.1515 24.2069L21.2364 21.5023L24.7153 25.5058L23.3701 26.6852C22.096 27.8022 23.822 29.788 25.0986 28.6688L28.4251 25.7525C28.9703 25.2746 29.0271 24.441 28.552 23.8942ZM20.1496 18.9562L18.9892 17.6209L20.6841 16.135L21.8444 17.4703L20.1496 18.9562ZM15.6633 18.5249L19.6919 14.993L20.1269 15.4936L16.0983 19.0255L15.6633 18.5249ZM7.23423 6.23465C7.07473 6.05107 7.09399 5.77104 7.27728 5.61041L8.0895 4.89833C8.26979 4.7403 8.54563 4.75531 8.70575 4.93956L9.70279 6.08698L8.22884 7.37924L7.23423 6.23465ZM7.84108 8.84906L11.2078 5.89735C11.4248 5.73995 11.6303 5.75365 11.8241 5.93859L12.6227 6.85769L12.0916 7.32333C11.6876 7.67762 12.2484 8.31568 12.6517 7.96218L13.18 7.49903L14.1918 8.66356L12.9537 9.74908C12.5497 10.1034 13.1106 10.7415 13.5138 10.3879L14.7492 9.30479L15.7611 10.4693L15.23 10.9349C14.826 11.2892 15.3868 11.9272 15.7901 11.5738L16.3184 11.1106L17.3303 12.2751L16.092 13.3608C15.688 13.715 16.2489 14.3532 16.6521 13.9996L17.8876 12.9165L19.1347 14.3517L15.106 17.8836L13.2938 15.7682V14.7887H13.7791C14.0138 14.7887 14.2039 14.5985 14.2039 14.3639V12.8037C14.2039 12.5691 14.0138 12.3789 13.7791 12.3789H10.3228L7.79797 9.4733C7.63853 9.28972 7.65785 9.00969 7.84108 8.84906ZM9.92069 13.2286H13.3544V13.9392H12.8691H10.406H9.92069V13.2286ZM12.4442 14.7888V15.4994H10.8308V14.7888H12.4442ZM14.9073 24.8159H8.36778V20.8713H14.9073V24.8159ZM2.52825 13.2286H5.96191V13.9392H5.47662H3.01355H2.52825V13.2286ZM5.05182 14.7888V15.4994H3.43835V14.7888H5.05182ZM0.97534 20.0217C0.950758 19.5371 0.951778 19.0099 1.28346 18.6189L3.2102 16.3489H5.27996L7.2067 18.6189C7.53839 19.0098 7.53947 19.5371 7.51483 20.0217H0.97534ZM6.87077 28.1453H1.61946C1.26426 28.1453 0.97534 27.8576 0.97534 27.5038V25.6655H7.51483V27.5038C7.51483 27.8576 7.2259 28.1453 6.87077 28.1453ZM14.2632 28.1453H9.01184C8.65664 28.1453 8.36778 27.8576 8.36778 27.5038V25.6655H14.9073V27.5038C14.9073 27.8576 14.6183 28.1453 14.2632 28.1453ZM14.5991 18.619C14.9308 19.0099 14.9318 19.5371 14.9072 20.0217H8.36778C8.34319 19.5372 8.34421 19.0099 8.6759 18.619L10.6026 16.349H12.647L14.5991 18.619ZM16.6555 19.6668L18.3504 18.1809L19.5107 19.5162L17.8159 21.0021L16.6555 19.6668ZM27.865 25.1137L24.5386 28.03C24.0942 28.4198 23.4852 27.7142 23.9303 27.3241L27.2567 24.4078C27.7035 24.0161 28.3159 24.7184 27.865 25.1137Z" fill="#F1F5F9"/>
</g>
<defs>
<clipPath id="clip0_7993_6586">
<rect width="29" height="29" fill="white"/>
</clipPath>
</defs>
</svg>
