<svg width="47" height="47" viewBox="0 0 47 47" fill="none" xmlns="http://www.w3.org/2000/svg">
<path d="M23.5523 11.4098C16.853 11.4098 11.5145 16.853 11.5145 23.4477C11.5145 30.147 16.853 35.4855 23.5523 35.4855C30.1469 35.4855 35.5901 30.147 35.5901 23.4477C35.5901 16.853 30.1469 11.4098 23.5523 11.4098ZM23.5523 31.2984C19.2605 31.2984 15.7015 27.8441 15.7015 23.4477C15.7015 19.1559 19.1559 15.7016 23.5523 15.7016C27.844 15.7016 31.2984 19.1559 31.2984 23.4477C31.2984 27.8441 27.844 31.2984 23.5523 31.2984ZM38.8351 10.9911C38.8351 9.42097 37.579 8.16484 36.0088 8.16484C34.4387 8.16484 33.1826 9.42097 33.1826 10.9911C33.1826 12.5613 34.4387 13.8174 36.0088 13.8174C37.579 13.8174 38.8351 12.5613 38.8351 10.9911ZM46.7905 13.8174C46.5812 10.049 45.7438 6.69937 43.0222 3.97777C40.3006 1.25617 36.9509 0.41876 33.1826 0.209406C29.3095 5.28759e-05 17.6904 5.28759e-05 13.8173 0.209406C10.049 0.41876 6.804 1.25617 3.97773 3.97777C1.25613 6.69937 0.418716 10.049 0.209362 13.8174C8.74474e-06 17.6904 8.74474e-06 29.3096 0.209362 33.1826C0.418716 36.951 1.25613 40.1959 3.97773 43.0222C6.804 45.7438 10.049 46.5812 13.8173 46.7906C17.6904 46.9999 29.3095 46.9999 33.1826 46.7906C36.9509 46.5812 40.3006 45.7438 43.0222 43.0222C45.7438 40.1959 46.5812 36.951 46.7905 33.1826C46.9999 29.3096 46.9999 17.6904 46.7905 13.8174ZM41.7661 37.265C41.0333 39.3585 39.3585 40.9287 37.3696 41.7661C34.2293 43.0222 26.9019 42.7082 23.5523 42.7082C20.098 42.7082 12.7706 43.0222 9.73495 41.7661C7.64142 40.9287 6.07126 39.3585 5.23385 37.265C3.97773 34.2294 4.29176 26.902 4.29176 23.4477C4.29176 20.098 3.97773 12.7706 5.23385 9.63032C6.07126 7.64146 7.64142 6.07131 9.73495 5.23389C12.7706 3.97777 20.098 4.2918 23.5523 4.2918C26.9019 4.2918 34.2293 3.97777 37.3696 5.23389C39.3585 5.96663 40.9286 7.64146 41.7661 9.63032C43.0222 12.7706 42.7081 20.098 42.7081 23.4477C42.7081 26.902 43.0222 34.2294 41.7661 37.265Z" fill="#CBD5E1"/>
</svg>
