<svg width="997" height="164" viewBox="0 0 997 164" fill="none" xmlns="http://www.w3.org/2000/svg">
<path d="M1.24627 163.123C9.08554 151.448 44.2788 125.195 120.336 117.589C215.408 108.082 231.921 122.593 263.945 125.095C295.969 127.597 407.554 120.591 449.085 100.576C490.617 80.5611 567.675 86.5657 587.19 93.571C606.705 100.576 687.266 96.0728 717.789 73.5558C748.312 51.0387 823.869 26.0198 881.913 35.527C939.957 45.0342 983.99 10.508 991.996 4.50341" stroke="#FF073A" stroke-width="3"/>
<circle cx="26.2652" cy="143.108" r="4.00303" fill="#FF073A"/>
<circle cx="66.2955" cy="126.095" r="4.00303" fill="#FF073A"/>
<circle cx="104.324" cy="119.09" r="4.00303" fill="#FF073A"/>
<circle cx="125.34" cy="116.088" r="4.00303" fill="#FF073A"/>
<circle cx="147.357" cy="114.086" r="4.00303" fill="#FF073A"/>
<circle cx="170.374" cy="114.086" r="4.00303" fill="#FF073A"/>
<circle cx="193.392" cy="114.086" r="4.00303" fill="#FF073A"/>
<circle cx="225.416" cy="118.089" r="4.00303" fill="#FF073A"/>
<circle cx="258.441" cy="124.094" r="4.00303" fill="#FF073A"/>
<circle cx="286.462" cy="125.095" r="4.00303" fill="#FF073A"/>
<circle cx="312.482" cy="124.094" r="4.00303" fill="#FF073A"/>
<circle cx="337.501" cy="122.092" r="4.00303" fill="#FF073A"/>
<circle cx="362.52" cy="120.091" r="4.00303" fill="#FF073A"/>
<circle cx="387.539" cy="116.088" r="4.00303" fill="#FF073A"/>
<circle cx="409.555" cy="113.086" r="4.00303" fill="#FF073A"/>
<circle cx="430.571" cy="108.082" r="4.00303" fill="#FF073A"/>
<circle cx="450.586" cy="100.076" r="4.00303" fill="#FF073A"/>
<circle cx="470.602" cy="92.0697" r="4.00303" fill="#FF073A"/>
<circle cx="492.618" cy="88.0667" r="4.00303" fill="#FF073A"/>
<circle cx="514.635" cy="86.0651" r="4.00303" fill="#FF073A"/>
<circle cx="536.652" cy="86.0651" r="4.00303" fill="#FF073A"/>
<circle cx="558.668" cy="88.0667" r="4.00303" fill="#FF073A"/>
<circle cx="580.685" cy="92.0697" r="4.00303" fill="#FF073A"/>
<circle cx="600.7" cy="96.0727" r="4.00303" fill="#FF073A"/>
<circle cx="729.798" cy="66.05" r="4.00303" fill="#FF073A"/>
<circle cx="768.827" cy="49.0371" r="4.00303" fill="#FF073A"/>
<circle cx="808.858" cy="37.028" r="4.00303" fill="#FF073A"/>
<circle cx="829.873" cy="34.0258" r="4.00303" fill="#FF073A"/>
<circle cx="853.892" cy="33.025" r="4.00303" fill="#FF073A"/>
<circle cx="876.909" cy="34.0258" r="4.00303" fill="#FF073A"/>
<circle cx="899.927" cy="36.0273" r="4.00303" fill="#FF073A"/>
<circle cx="921.943" cy="35.0265" r="4.00303" fill="#FF073A"/>
<circle cx="942.959" cy="30.0227" r="4.00303" fill="#FF073A"/>
<circle cx="962.974" cy="22.0167" r="4.00303" fill="#FF073A"/>
<circle cx="979.987" cy="13.0098" r="4.00303" fill="#FF073A"/>
<circle cx="992.997" cy="4.00303" r="4.00303" fill="#FF073A"/>
<circle cx="790.844" cy="41.0311" r="4.00303" fill="#FF073A"/>
<circle cx="748.812" cy="57.0432" r="4.00303" fill="#FF073A"/>
<circle cx="712.785" cy="76.0576" r="4.00303" fill="#FF073A"/>
<circle cx="696.773" cy="84.0636" r="4.00303" fill="#FF073A"/>
<circle cx="676.758" cy="90.0682" r="4.00303" fill="#FF073A"/>
<circle cx="652.739" cy="94.0712" r="4.00303" fill="#FF073A"/>
<circle cx="626.72" cy="96.0727" r="4.00303" fill="#FF073A"/>
</svg>
