<svg width="420" height="420" viewBox="0 0 420 420" fill="none" xmlns="http://www.w3.org/2000/svg">
<circle cx="210" cy="210" r="210" fill="#64C2A6"/>
<path d="M420 210C420 175.465 411.483 141.464 395.203 111.007C378.924 80.5498 355.384 54.5778 326.67 35.3914C297.955 16.2049 264.952 4.3962 230.584 1.01121C196.215 -2.37379 161.542 2.76944 129.636 15.9853C97.7306 29.2012 69.5764 50.0817 47.6678 76.7774C25.7592 103.473 10.7725 135.16 4.03509 169.031C-2.7023 202.902 -0.982368 237.912 9.04253 270.96C19.0674 304.007 37.0878 334.073 61.5076 358.492L210 210H420Z" fill="#2D87BB"/>
<path d="M420 210C420 182.422 414.568 155.115 404.015 129.636C393.461 104.158 377.993 81.0079 358.492 61.5076C338.992 42.0073 315.842 26.5388 290.364 15.9853C264.885 5.43181 237.578 -1.20545e-06 210 0L210 210H420Z" fill="#A3DF9F"/>
</svg>
