<svg width="44" height="48" viewBox="0 0 44 48" fill="none" xmlns="http://www.w3.org/2000/svg">
<path d="M13.7818 46.9429C15.3096 47.2044 15.8825 46.3079 15.8825 45.5235C15.8825 44.8138 15.8443 42.4605 15.8443 39.9578C8.16737 41.3399 6.1813 38.1275 5.5702 36.4465C5.22645 35.5874 3.7369 32.9353 2.43831 32.2256C1.36889 31.6653 -0.158856 30.2832 2.40012 30.2458C4.80632 30.2085 6.52504 32.4123 7.09794 33.3088C9.84789 37.8286 14.2402 36.5586 15.9971 35.7742C16.2644 33.8318 17.0665 32.5244 17.9449 31.7773C11.1465 31.0303 4.04245 28.4529 4.04245 17.0226C4.04245 13.7729 5.22645 11.0834 7.17433 8.99161C6.86878 8.24453 5.79936 5.18153 7.47988 1.07263C7.47988 1.07263 10.0389 0.288207 15.8825 4.13563C18.3269 3.46327 20.9241 3.12708 23.5212 3.12708C26.1184 3.12708 28.7156 3.46327 31.16 4.13563C37.0036 0.250854 39.5626 1.07263 39.5626 1.07263C41.2431 5.18153 40.1737 8.24453 39.8681 8.99161C41.816 11.0834 43 13.7355 43 17.0226C43 28.4902 35.8578 31.0303 29.0593 31.7773C30.1669 32.7112 31.1218 34.5041 31.1218 37.3057C31.1218 41.3025 31.0836 44.5149 31.0836 45.5235C31.0836 46.3079 31.6565 47.2417 33.1842 46.9429" stroke="#CBD5E1" stroke-width="2"/>
</svg>
