<svg width="38" height="38" viewBox="0 0 38 38" fill="none" xmlns="http://www.w3.org/2000/svg">
<path d="M30.0255 21.7405C29.6011 21.7406 29.1828 21.8408 28.8044 22.0331C28.4261 22.2254 28.0986 22.5043 27.8484 22.8472C27.5984 22.5039 27.2708 22.2245 26.8924 22.0319C26.5139 21.8393 26.0953 21.7388 25.6706 21.7388C24.7742 21.7388 24.0439 22.1082 23.5587 22.8069C23.1814 23.3502 22.9736 24.0761 22.9736 24.8498C22.9736 28.1921 27.3783 31.0813 27.5658 31.2029C27.6501 31.2575 27.7484 31.2864 27.8488 31.2863C27.9492 31.2861 28.0475 31.2569 28.1316 31.202C28.3191 31.0799 32.7225 28.1726 32.7225 24.8496C32.7222 23.3423 31.7773 21.7405 30.0255 21.7405ZM27.8472 30.1339C26.9161 29.466 24.0127 27.1936 24.0127 24.8496C24.0127 24.5036 24.0926 22.7776 25.6706 22.7776C26.1103 22.7783 26.5318 22.9533 26.8427 23.2644C27.1535 23.5754 27.3282 23.9971 27.3285 24.4368C27.3285 24.5746 27.3832 24.7068 27.4807 24.8042C27.5781 24.9016 27.7102 24.9564 27.848 24.9564C27.9858 24.9564 28.118 24.9016 28.2154 24.8042C28.3128 24.7068 28.3676 24.5746 28.3676 24.4368C28.3681 23.9973 28.543 23.576 28.8538 23.2653C29.1646 22.9546 29.586 22.7798 30.0255 22.7794C31.2334 22.7794 31.6834 24.0489 31.6834 24.8491C31.6831 27.179 28.7781 29.4623 27.8472 30.1339Z" fill="#28A745"/>
<path d="M27.849 17.7637C26.21 17.7652 24.6042 18.2265 23.2143 19.0952C21.8244 19.9639 20.7061 21.2051 19.9866 22.6778C19.9063 22.6528 19.8287 22.6283 19.7552 22.6045L19.1003 21.1301C20.6482 19.9568 21.0733 18.1377 21.1896 17.2553C22.2419 16.9707 23.2089 15.7338 23.5962 14.0951C23.8046 13.2095 23.4994 12.3852 22.8364 12.0435C22.6523 11.948 22.4476 11.8986 22.2402 11.8996C22.2746 11.6419 22.3105 11.3265 22.3476 10.9389C22.4342 10.035 22.4895 9.12199 22.4895 8.89043C22.4895 7.92261 22.1599 6.4539 21.2352 5.23419C19.6961 3.20475 17.2671 2.77881 15.5004 2.77881C13.7626 2.77881 11.3478 3.17618 9.71197 5.06913C8.42413 6.55944 8.14417 8.37928 8.27012 9.23911C8.27472 9.2702 8.30241 9.41671 8.34664 9.63543C8.34901 9.66421 8.35378 9.69273 8.36089 9.72071C8.36208 9.72516 8.36571 9.7386 8.37165 9.75834C8.48491 10.3102 8.67818 11.1982 8.8779 11.9329C8.69715 11.9487 8.52164 12.0018 8.36245 12.0888C7.7261 12.4327 7.43434 13.2392 7.63637 14.0954C8.02431 15.7372 8.99405 16.9751 10.0485 17.2571C10.1726 18.1147 10.6039 19.8928 12.0821 21.0676L11.3834 22.5735C10.8893 22.7279 10.346 22.8793 9.77082 23.0383C6.24068 24.0143 1.41016 25.3509 1.41016 29.7973V33.0035C1.41016 34.09 2.80458 35.2539 3.79184 35.2539H27.4877C27.6076 35.2588 27.7279 35.2619 27.849 35.2619C29.0001 35.2653 30.1406 35.0414 31.205 34.6032C32.2694 34.1651 33.2369 33.5211 34.0521 32.7084C34.8672 31.8956 35.5139 30.93 35.9552 29.8668C36.3965 28.8037 36.6236 27.6639 36.6236 26.5128C36.6236 25.3617 36.3965 24.2219 35.9552 23.1588C35.5139 22.0956 34.8672 21.13 34.0521 20.3172C33.2369 19.5045 32.2694 18.8606 31.205 18.4224C30.1406 17.9842 29.0001 17.7604 27.849 17.7637ZM10.4978 5.74889C11.6048 4.4678 13.2878 3.81824 15.5001 3.81824C17.7274 3.81824 19.3784 4.50603 20.4072 5.86245C20.7743 6.35037 21.0513 6.89996 21.225 7.48532C20.7583 6.97919 20.2184 6.54573 19.6234 6.19933C19.5548 6.16078 19.4783 6.13846 19.3997 6.13408C19.3211 6.12969 19.2425 6.14336 19.17 6.17403C19.0976 6.2047 19.033 6.25156 18.9815 6.31102C18.9299 6.37048 18.8926 6.44096 18.8725 6.51706C18.8665 6.53784 18.2268 8.6199 14.1893 10.4458C12.6789 11.1286 11.4616 11.2633 10.5711 10.8454C10.287 10.7074 10.0338 10.5135 9.82666 10.2751C9.61951 10.0368 9.46271 9.759 9.36566 9.4585L9.36507 9.45657C9.33293 9.29692 9.30941 9.16904 9.29761 9.08881C9.1131 7.82828 10.0265 6.29425 10.4978 5.74889ZM11.0401 16.777C11.0339 16.6431 10.9765 16.5168 10.8798 16.424C10.7832 16.3312 10.6546 16.2791 10.5206 16.2783H10.4998C9.87933 16.2783 8.99079 15.3108 8.64715 13.8566C8.54065 13.4052 8.68077 13.0977 8.85608 13.0031C9.05469 12.8958 9.26606 13.0842 9.3477 13.1703C9.43793 13.2655 9.56084 13.3231 9.69176 13.3315C9.82268 13.3398 9.95191 13.2983 10.0535 13.2153C10.1551 13.1323 10.2215 13.014 10.2395 12.884C10.2574 12.7541 10.2255 12.6222 10.1502 12.5147C10.0871 12.3979 9.98695 12.0675 9.87718 11.6534C9.9514 11.6966 10.0289 11.738 10.1102 11.7768C10.6129 12.0109 11.162 12.1285 11.7165 12.1208C12.5744 12.1208 13.5444 11.8778 14.6175 11.3925C17.8188 9.9447 19.1061 8.30165 19.5968 7.42119C19.8335 7.59412 20.0574 7.7839 20.2668 7.98904C20.9951 8.70562 21.3657 9.45389 21.369 10.2132C21.292 11.1525 21.1731 12.2668 21.0672 12.5373C20.9978 12.648 20.9726 12.7807 20.9967 12.909C21.0207 13.0374 21.0922 13.152 21.197 13.23C21.3017 13.3081 21.432 13.3438 21.5619 13.33C21.6918 13.3163 21.8117 13.2542 21.8979 13.156C21.9944 13.0462 22.1824 12.8758 22.3605 12.9674C22.5527 13.0664 22.6914 13.4039 22.5848 13.8566C22.2391 15.3197 21.342 16.2891 20.7212 16.2784C20.5843 16.2758 20.4519 16.3274 20.3528 16.4219C20.2537 16.5164 20.1959 16.6462 20.1919 16.7831C20.1696 17.2106 19.9667 19.3991 18.1811 20.5029C17.4884 20.9307 16.6254 21.1476 15.616 21.1476C14.6101 21.1476 13.7493 20.926 13.0573 20.4887C11.3035 19.3815 11.0693 17.2025 11.0401 16.777ZM12.2301 23.2178L12.9685 21.6259C13.7325 21.998 14.6202 22.1866 15.6161 22.1866C16.5857 22.1866 17.4526 22.0122 18.2021 21.6676L18.8991 23.2367C18.9283 23.3024 18.9708 23.3614 19.024 23.4098C19.0772 23.4583 19.1398 23.4951 19.208 23.5181C19.3263 23.558 19.4509 23.5986 19.5848 23.6408C19.5016 23.8793 19.4287 24.1222 19.366 24.3696C18.8012 25.4002 17.4943 26.5793 15.6161 26.5793C13.1654 26.5793 11.9241 24.6552 11.6747 23.571C11.7574 23.5453 11.8393 23.5191 11.9196 23.4933C11.9875 23.4712 12.0501 23.4353 12.1036 23.3879C12.157 23.3405 12.2001 23.2826 12.2301 23.2178ZM3.79184 34.2148C3.29939 34.2148 2.44922 33.445 2.44922 33.0035V29.7973C2.44922 28.1728 3.21479 26.953 4.86741 25.9586C6.36322 25.0585 8.31859 24.5173 10.0457 24.0398C10.2609 23.9804 10.4702 23.922 10.6765 23.8641C11.0658 25.4445 12.7451 27.6183 15.6164 27.6183C16.8996 27.6209 18.1395 27.1545 19.1027 26.3067C19.1011 26.3752 19.1 26.4439 19.1 26.5129C19.1011 28.0923 19.5293 29.642 20.3394 30.9979C21.1495 32.3538 22.3112 33.4654 23.7015 34.2148H3.79184ZM27.849 34.2228H27.8366C27.8078 34.2178 27.7787 34.2151 27.7494 34.215H27.5055C25.4797 34.1225 23.5721 33.2348 22.1968 31.7446C20.8214 30.2543 20.0892 28.2818 20.1592 26.2552C20.2291 24.2285 21.0954 22.3111 22.5702 20.9192C24.045 19.5274 26.0092 18.7732 28.0366 18.8205C30.0639 18.8679 31.9908 19.7128 33.399 21.1719C34.8073 22.6311 35.5833 24.5868 35.5586 26.6145C35.5339 28.6423 34.7105 30.5785 33.2671 32.0029C31.8237 33.4273 29.8768 34.2251 27.849 34.223L27.849 34.2228Z" fill="#28A745"/>
</svg>
